<?xml version="1.0" encoding="utf-8"?>
<svg version="1.1" id="圖層_1" xmlns="http://www.w3.org/2000/svg" x="0" y="0" viewBox="0 0 100 100" xml:space="preserve" style="height: 100%; width: 100%; background: none; shape-rendering: auto;" width="128px" height="128px"><g class="ldl-scale" style="transform-origin: 50% 50%; transform: scale(0.8);"><g class="ldl-ani">
    <g class="ldl-layer"><g class="ldl-ani" style="transform-origin: 50px 50px; transform: matrix(0.01, 0, 0, 0.01, 0, 0); animation: 0.877193s linear 0.105263s 1 normal forwards running bounce-in-f54fc013-3db9-40c6-af21-00aaff25d2f8;"><path d="M50 5C25.187 5 5 25.187 5 50s20.187 45 45 45 45-20.187 45-45S74.813 5 50 5zm0 80c-19.299 0-35-15.701-35-35s15.701-35 35-35 35 15.701 35 35-15.701 35-35 35z" fill="#333" style="fill: rgb(51, 51, 51);"></path></g></g>
    <g class="ldl-layer"><g class="ldl-ani" style="transform-origin: 50px 50px; transform: matrix(0.01, 0, 0, 0.01, 0, 0); animation: 0.877193s linear 0s 1 normal forwards running bounce-in-f54fc013-3db9-40c6-af21-00aaff25d2f8;"><path d="M68.536 38.536L57.065 50.007l11.458 11.458a5 5 0 11-7.072 7.071L49.993 57.078 39.205 67.867c-.977.976-2.256 1.464-3.536 1.464s-2.559-.488-3.536-1.464a5 5 0 010-7.071l10.789-10.789-11.458-11.458a5 5 0 117.071-7.071l11.458 11.458 11.471-11.471a5.001 5.001 0 017.072 7.071z" fill="#e15b64" style="fill: rgb(225, 91, 100);"></path></g></g>
    <metadata xmlns:d="https://loading.io/stock/">
        <d:name>
            uncheck
        </d:name>
        <d:tags>
            fail,close,times,disable,option,select,choice,off,uncheck,form
        </d:tags>
        <d:license>
            free
        </d:license>
        <d:slug>
            fc33k9
        </d:slug>
    </metadata>
</g></g><style id="bounce-in-f54fc013-3db9-40c6-af21-00aaff25d2f8" data-anikit="">@keyframes bounce-in-f54fc013-3db9-40c6-af21-00aaff25d2f8
{
  0% {
    animation-timing-function: cubic-bezier(0.0304,0.3449,-0.6564,0.6653);
    transform: matrix(0.01,0,0,0.01,0,0);
    opacity: 1;
  }
  3% {
    animation-timing-function: cubic-bezier(0.0506,0.0813,0.3121,1);
    transform: matrix(0.633,0,0,0.633,0,0);
    opacity: 1;
  }
  9.9% {
    animation-timing-function: cubic-bezier(0.6413,0.089,0.2852,1);
    transform: matrix(1.105,0,0,1.105,0,0);
    opacity: 1;
  }
  19.7% {
    animation-timing-function: cubic-bezier(0.6492,0.0724,0.2919,1);
    transform: matrix(0.752,0,0,0.752,0,0);
    opacity: 1;
  }
  30% {
    animation-timing-function: cubic-bezier(0.5097,0.12,0.4152,1);
    transform: matrix(1.06,0,0,1.06,0,0);
    opacity: 1;
  }
  39.7% {
    animation-timing-function: cubic-bezier(0.5435,0.1025,0.4015,1);
    transform: matrix(0.854,0,0,0.854,0,0);
    opacity: 1;
  }
  50% {
    animation-timing-function: cubic-bezier(0.5028,0,0.4595,1);
    transform: matrix(1.036,0,0,1.036,0,0);
    opacity: 1;
  }
  59.6% {
    animation-timing-function: cubic-bezier(0.4736,0,0.4908,1);
    transform: matrix(0.917,0,0,0.917,0,0);
    opacity: 1;
  }
  69.9% {
    animation-timing-function: cubic-bezier(0.4067,0,0.5721,1);
    transform: matrix(1.019,0,0,1.019,0,0);
    opacity: 1;
  }
  79.3% {
    animation-timing-function: cubic-bezier(0.3726,0,0.6119,1);
    transform: matrix(0.963,0,0,0.963,0,0);
    opacity: 1;
  }
  89.6% {
    animation-timing-function: cubic-bezier(0.3444,0,0.6533,1);
    transform: matrix(1.006,0,0,1.006,0,0);
    opacity: 1;
  }
  96.6% {
    animation-timing-function: cubic-bezier(0.3384,0,0.7046,1);
    transform: matrix(0.996,0,0,0.996,0,0);
    opacity: 1;
  }
  100% {
    transform: matrix(1,0,0,1,0,0);
    opacity: 1;
  }
}</style><!-- [ldio] generated by https://loading.io/ --></svg>